<?xml version="1.0" encoding="UTF-8"?>
<svg viewBox="0 0 695 164" xmlns="http://www.w3.org/2000/svg">
<g fill="#0055A9" fill-rule="evenodd">
<path d="m547.2 109.7h13.2v-54.9h-13.2v54.9zm-349.2-27.4c0-9.7 6.6-16.6 16.2-16.6 9.7 0 16.1 6.9 16.1 16.6s-6.4 16.6-16.1 16.6c-9.7-0.1-16.2-6.9-16.2-16.6zm-13.3 0c0 16.7 12.2 28.9 29.6 28.9 17.3 0 29.6-12.2 29.6-28.9s-12.2-28.9-29.6-28.9-29.6 12.2-29.6 28.9zm81 0c0-9.7 6.4-16.6 16.1-16.6s16.2 6.9 16.2 16.6-6.6 16.6-16.2 16.6c-9.7-0.1-16.1-6.9-16.1-16.6zm-13.3 0.4v50.5h13.2v-31.1h0.2c3.6 5.6 10.1 9.1 18.3 9.1 13.1 0 27.1-9.5 27.1-28.9 0-16.7-12.2-28.9-29.6-28.9-17.2 0-29.2 11.5-29.2 29.3zm79.6-6.5c2.1-6.7 7.6-10.8 15.3-10.8s13.2 4.1 15.3 10.8v0.2h-30.6v-0.2zm-14.2 6.1c0 16.7 12.2 28.9 29.6 28.9 13 0 23-6.8 27.1-17.2h-14.1c-2.8 3.6-7.1 5.2-13 5.2-8.2 0-13.9-4.7-15.7-12v-0.2h45v-4.7c0-16.7-12-28.9-29.3-28.9-17.4 0-29.6 12.2-29.6 28.9zm67.5-1.1v28.6h13.2v-28.6c0-10.5 5.6-15.5 13.9-15.5s13.9 5 13.9 15.5v28.6h13.2v-28.6c0-18.5-10.9-27.8-27.1-27.8s-27.1 9.4-27.1 27.8zm107.2-18.2h-0.2c-4-6.2-10.7-9.7-18.9-9.7-13 0-23 7.8-23 25v31.4h13.2v-31.3c0-9 4.7-12.7 11.1-12.7 6.3 0 11.1 3.8 11.1 12.7v31.4h13.2v-31.4c0-8.9 4.7-12.7 11-12.7 6.4 0 11.1 3.7 11.1 12.7v31.4h13.2v-31.4c0-17.2-10-25-23-25-8.2 0-14.9 3.4-18.8 9.6zm80.7 18.2v28.6h13.2v-28.6c0-10.5 5.6-15.5 13.9-15.5s13.9 5 13.9 15.5v28.6h13.2v-28.6c0-18.5-10.9-27.8-27.1-27.8s-27.1 9.4-27.1 27.8zm76.2 1.1c0-9.7 6.6-16.6 16.2-16.6 9.7 0 16.1 6.9 16.1 16.6s-6.4 16.6-16.1 16.6c-9.6-0.1-16.2-6.9-16.2-16.6zm32.3-51.5v31.7h-0.2c-3.6-5.6-10.1-9.1-18.3-9.1-13.1 0-27.1 9.5-27.1 28.9 0 16.7 12.2 28.9 29.6 28.9 17.3 0 29.3-11.6 29.3-29.4v-51h-13.3zm-136.7 8.7c0 4.9 3.9 8.8 8.8 8.8 5 0 8.8-3.9 8.8-8.8 0-5-3.8-8.9-8.8-8.9-4.9 0-8.8 3.8-8.8 8.9zm-492.68-33.441c4.8137 4.7906 9.0475 9.9438 12.753 15.356-1.4899 1.0676-2.9308 2.246-4.2698 3.5932l-2.9868 3.1079c10.251 16.448 15.389 35.184 15.389 53.89 0 17.59-4.5577 35.232-13.642 50.95l6.2746 6.026c0.33098 0.33555 0.67196 0.62916 1.0059 0.93276-4.1018 6.3965-8.9215 12.435-14.524 18.026l6.0607 6.0589c22.667-22.644 33.998-52.342 33.998-81.994 0-29.667-11.331-59.359-33.998-82.006l-6.0607 6.0589zm33.683 8.5057c-0.66796 0-1.3389 0.018975-2.0069 0.055926 13.665 20.333 20.516 43.868 20.516 67.385 0 23.276-6.7126 46.609-20.132 66.797 11.203 2.1222 23.239-1.1535 31.91-9.8209l29.253-29.243c13.934-13.927 28.731-21.705 0-50.441l-34.292-34.29c-6.9746-6.9627-16.105-10.442-25.247-10.443h-0.0019999zm26.172 67.441c0-7.1815 5.8167-12.992 12.977-12.992 7.1756 0 13.006 5.8103 13.006 12.992 0 7.1615-5.8307 12.981-13.006 12.981-7.1606 0-12.977-5.8193-12.977-12.981zm-79.931-56.167c4.4668 5.4028 8.1865 11.198 11.173 17.27l-23.157 24.086c-1.6719-7.3722-4.5527-14.51-8.7075-21.101l-11.554 11.276c4.1088 7.5999 6.1997 15.98 6.2717 24.402l-0.012999 0.011984 0.012999 0.01498c0 0.11784 0.0069996 0.24567 0.0069996 0.36851 0 8.4418-2.0279 16.818-6.0777 24.438l11.568 11.309c4.3318-6.9647 7.2596-14.55 8.8435-22.336l24.04 23.067c-3.1198 6.8759-7.1616 13.445-12.154 19.51l6.1457 5.987c14.954-17.906 22.428-39.961 22.428-61.992 0-22.146-7.5696-44.324-22.691-62.302l-6.1357 5.991z"/>
</g>
</svg>
